<?xml version="1.0" encoding="UTF-8" standalone="no"?>
<!-- Created with Inkscape (http://www.inkscape.org/) -->

<svg
   width="50mm"
   height="50mm"
   viewBox="0 0 50 50"
   version="1.1"
   id="svg917"
   inkscape:version="1.1.2 (b8e25be8, 2022-02-05)"
   sodipodi:docname="press_to_start_38x50.svg"
   xmlns:inkscape="http://www.inkscape.org/namespaces/inkscape"
   xmlns:sodipodi="http://sodipodi.sourceforge.net/DTD/sodipodi-0.dtd"
   xmlns="http://www.w3.org/2000/svg"
   xmlns:svg="http://www.w3.org/2000/svg">
  <sodipodi:namedview
     id="namedview919"
     pagecolor="#ffffff"
     bordercolor="#666666"
     borderopacity="1.0"
     inkscape:pageshadow="2"
     inkscape:pageopacity="0.0"
     inkscape:pagecheckerboard="0"
     inkscape:document-units="mm"
     showgrid="false"
     inkscape:zoom="1.8835829"
     inkscape:cx="82.820883"
     inkscape:cy="106.97697"
     inkscape:window-width="1283"
     inkscape:window-height="723"
     inkscape:window-x="129"
     inkscape:window-y="92"
     inkscape:window-maximized="0"
     inkscape:current-layer="layer1" />
  <defs
     id="defs914">
    <inkscape:path-effect
       effect="bspline"
       id="path-effect958"
       is_visible="true"
       lpeversion="1"
       weight="33.333333"
       steps="2"
       helper_size="0"
       apply_no_weight="true"
       apply_with_weight="true"
       only_selected="false" />
  </defs>
  <g
     inkscape:label="Layer 1"
     inkscape:groupmode="layer"
     id="layer1">
    <path
       style="fill:#ffd5d5;stroke:#ffd5d5;stroke-width:0.262577px;stroke-linecap:butt;stroke-linejoin:miter;stroke-opacity:1"
       d="M 6.2997693,2.7775287 C 6.2661096,2.6083251 6.1987295,2.2696125 6.1650092,2.0451954 6.131289,1.8207784 6.131289,1.7106964 6.131289,1.6006149 c 0,-0.1100815 0,-0.2201605 0.021031,-0.3387634 C 6.17335,1.1432486 6.2154615,1.0162354 6.2702139,0.90187074 6.3249663,0.78750603 6.3923437,0.68589501 6.4765886,0.58425014 6.5608335,0.48260527 6.6619002,0.38099397 6.7588496,0.31745919 6.855799,0.25392441 6.9484407,0.22852218 7.0495182,0.20312055 7.1505958,0.17771892 7.260083,0.15231671 7.3780336,0.13963708 7.4959841,0.12695744 7.6223201,0.12695744 7.7486843,0.15242468 7.8750486,0.17789192 8.0013842,0.22869855 8.1361374,0.300711 8.2708907,0.37272345 8.4140699,0.46586816 8.5572385,0.57597427 8.7004071,0.68608039 8.8435861,0.81309438 8.9867459,0.96553711 9.1299057,1.1179798 9.2730836,1.2958001 9.4625915,1.5286664 c 0.1895079,0.2328663 0.4253314,0.5207658 0.6274575,0.7875113 0.202126,0.2667454 0.37057,0.5123068 0.534808,0.7536417 0.164237,0.2413349 0.32426,0.4784289 0.547476,0.7620915 0.223216,0.2836627 0.509572,0.6138987 0.74539,0.9060494 0.235817,0.2921507 0.421105,0.5461777 0.635901,0.8002009 0.214796,0.2540232 0.459039,0.5080499 0.690651,0.7620931 0.231611,0.2540432 0.45059,0.5080716 0.665364,0.7578747 0.214774,0.2498031 0.425328,0.4953632 0.686429,0.7917369 0.261101,0.2963736 0.572725,0.6435468 0.854869,0.9780354 0.282144,0.3344885 0.534812,0.6562585 0.753794,0.9399338 0.218981,0.2836749 0.40427,0.5292349 0.644317,0.8340759 0.240048,0.304841 0.534827,0.668949 0.69901,0.893359 0.164183,0.22441 0.197875,0.309091 0.168387,0.215943 -0.02949,-0.09315 -0.122134,-0.364114 -0.172713,-0.558893 -0.05058,-0.19478 -0.059,-0.313324 -0.08424,-0.448795 -0.02524,-0.13547 -0.06735,-0.287888 -0.105218,-0.402197 -0.03787,-0.114308 -0.07156,-0.190524 -0.117905,-0.3133084 -0.04634,-0.1227845 -0.105297,-0.2921421 -0.164258,-0.4699662 -0.05896,-0.1778241 -0.117918,-0.364115 -0.109566,-0.6393781 0.0084,-0.2752631 0.08415,-0.6393719 0.172584,-0.9357849 0.08843,-0.2964131 0.189496,-0.5250385 0.303219,-0.7113835 0.113723,-0.186345 0.240057,-0.3302959 0.408559,-0.4615821 0.168501,-0.1312862 0.379057,-0.2498323 0.539109,-0.3302791 0.160052,-0.080447 0.269542,-0.122785 0.41701,-0.1354467 0.147468,-0.012662 0.332756,0.00427 0.534912,0.063611 0.202156,0.059336 0.421135,0.1609482 0.65696,0.2922252 0.235826,0.131277 0.488492,0.2921617 0.749325,0.5220488 0.260832,0.229887 0.529871,0.52868 0.785713,0.8431199 0.255843,0.3144399 0.498503,0.6444865 0.702235,0.936557 0.203731,0.2920704 0.368541,0.5461392 0.52789,0.7560122 0.159348,0.209873 0.31317,0.3755709 0.417439,0.4361809 0.10427,0.06061 0.159208,0.01642 0.324123,-0.02224 0.164914,-0.03867 0.439594,-0.0718 0.653825,-0.11048 0.21423,-0.038674 0.368053,-0.08286 0.494455,-0.1049287 0.126403,-0.022069 0.225289,-0.022069 0.406604,4.97e-5 0.181315,0.022119 0.445011,0.066304 0.77465,0.176819 0.329639,0.110515 0.72518,0.287259 1.054809,0.425333 0.329629,0.138075 0.593323,0.237493 0.84604,0.33692 0.252716,0.09943 0.494438,0.198845 0.752628,0.259548 0.258191,0.0607 0.532872,0.08279 0.791045,0.07172 0.258172,-0.01108 0.499895,-0.05526 0.725152,-0.0884 0.225257,-0.03313 0.434016,-0.05523 0.664795,-0.03308 0.230779,0.02215 0.483491,0.08843 0.708738,0.15472 0.225248,0.06629 0.423019,0.132571 0.604313,0.193328 0.181295,0.06076 0.346108,0.11599 0.538341,0.298362 0.192232,0.182371 0.411977,0.491672 0.631697,0.883844 0.21972,0.392172 0.439467,0.867171 0.637221,1.380848 0.197753,0.513676 0.373549,1.066001 0.538361,1.596249 0.164812,0.530248 0.318635,1.038385 0.455989,1.463689 0.137353,0.425303 0.258213,0.767743 0.38457,1.126766 0.126358,0.359023 0.258206,0.734603 0.455986,1.286946 0.19778,0.552343 0.461475,1.281413 0.725197,1.916603 0.263723,0.63519 0.527419,1.17647 0.813127,1.662521 0.285708,0.48605 0.593352,0.916863 0.895534,1.286916 0.302183,0.370054 0.59884,0.679356 0.906494,0.999714 0.307653,0.320358 0.626285,0.651752 1.148222,1.060453 0.521937,0.408702 1.247097,0.894746 1.911848,1.347669 0.664751,0.452922 1.269053,0.872689 1.565542,1.104661 0.296489,0.231971 0.285503,0.276155 0.280033,3.83883 -0.0055,3.562676 -0.0055,10.643476 -0.02182,14.167379 -0.01635,3.523903 -0.04931,3.49077 -1.093155,2.336368 -1.043847,-1.154403 -3.098473,-3.429978 -4.625743,-5.070431 -1.52727,-1.640452 -2.527115,-2.645683 -3.521498,-3.678557 -0.994383,-1.032875 -1.983237,-2.093342 -2.801805,-2.932908 -0.818567,-0.839566 -1.466818,-1.45817 -2.197492,-2.132031 -0.730675,-0.673861 -1.543735,-1.402929 -2.13156,-1.900049 -0.587826,-0.49712 -0.950408,-0.762237 -1.280036,-0.999746 -0.329628,-0.237509 -0.626284,-0.447391 -1.071275,-0.668372 -0.444991,-0.22098 -1.038307,-0.452957 -1.483304,-0.63522 -0.444997,-0.182263 -0.741655,-0.314821 -1.186656,-0.524706 -0.445,-0.209885 -1.038315,-0.497095 -1.598688,-0.806386 -0.560373,-0.309292 -1.087764,-0.640687 -1.499799,-0.900286 -0.412035,-0.259599 -0.708692,-0.447388 -1.153693,-0.734604 -0.445001,-0.287215 -1.038315,-0.673843 -1.466834,-0.961053 -0.42852,-0.287209 -0.692216,-0.475 -0.955948,-0.72352 C 15.513804,26.25469 15.250107,25.945387 14.876512,25.448287 14.502917,24.951188 14.019476,24.266305 13.574461,23.570361 13.129446,22.874417 12.722916,22.16744 12.453723,21.703475 12.184531,21.23951 12.052684,21.01858 11.926283,20.714794 11.799882,20.411008 11.67902,20.02438 11.569132,19.626691 c -0.109888,-0.397688 -0.208774,-0.806407 -0.258256,-1.060507 -0.04948,-0.254099 -0.04948,-0.353515 -0.225173,-0.635196 -0.175692,-0.281682 -0.527285,-0.745634 -0.719636,-1.038364 -0.192351,-0.29273 -0.225314,-0.414242 -0.192417,-0.557967 0.0329,-0.143725 0.131782,-0.309421 0.258206,-0.436523 0.126423,-0.127103 0.280246,-0.215474 0.428644,-0.2707 0.148399,-0.05523 0.291236,-0.07732 0.450594,-0.07728 0.159358,3.5e-5 0.335155,0.02213 0.505476,0.07189 0.170321,0.04977 0.33513,0.127091 0.521915,0.232059 0.186785,0.104967 0.395544,0.237527 0.609797,0.386672 0.214253,0.149146 0.433999,0.314843 0.631776,0.463974 0.197777,0.149132 0.373576,0.281692 0.538343,0.464006 0.164768,0.182314 0.318592,0.414291 0.450433,0.624183 0.131841,0.209892 0.241713,0.397682 0.329579,0.58548 0.08787,0.187799 0.153789,0.375591 0.219807,0.491523 0.06602,0.115932 0.13195,0.160123 0.192336,0.220928 0.06039,0.06081 0.115323,0.138131 0.170251,0.220988 0.05493,0.08286 0.109865,0.171228 0.153811,0.243033 0.04395,0.0718 0.0769,0.127036 0.159258,0.414257 0.08235,0.287221 0.214202,0.806407 0.32958,1.23171 0.115377,0.425303 0.214262,0.756696 0.131847,0.41976 -0.08242,-0.336936 -0.346111,-1.342167 -0.494463,-1.971841 -0.148353,-0.629675 -0.181312,-0.883744 -0.236232,-1.176478 -0.05492,-0.292733 -0.131832,-0.624129 -0.269146,-1.027333 -0.137315,-0.403205 -0.335085,-0.878204 -0.532839,-1.286939 -0.197753,-0.408735 -0.395525,-0.751175 -0.5933,-1.088104 -0.197775,-0.336928 -0.395547,-0.668324 -0.703187,-1.126774 -0.307641,-0.45845 -0.725158,-1.043914 -1.04381,-1.513399 -0.318651,-0.469484 -0.538397,-0.822971 -0.692211,-1.060483 -0.153814,-0.237511 -0.241712,-0.359022 -0.43949,-0.629672 C 11.052847,10.468946 10.745202,10.04918 10.426558,9.6073082 10.107914,9.1654364 9.7782946,8.7014837 9.514571,8.2872349 9.2508474,7.8729861 9.0530775,7.5084536 8.8278348,7.1052423 8.6025921,6.7020309 8.3498848,6.260172 7.9982879,5.6857331 7.646691,5.1112942 7.1962108,4.4043179 6.902271,3.9257758 6.6083312,3.4472338 6.4709689,3.197142 6.4022004,3.0719372 6.333432,2.9467324 6.333429,2.9467324 6.2997693,2.7775287 Z"
       id="path956"
       inkscape:path-effect="#path-effect958"
       inkscape:original-d="m 6.333429,2.9467324 c -0.06711,-0.338449 -0.134498,-0.67716 -0.20214,-1.016136 2.62e-4,-0.109818 2.62e-4,-0.2199 0,-0.330242 2.62e-4,-0.109821 2.62e-4,-0.2199 0,-0.330245 0.04238,-0.126755 0.08448,-0.253772 0.126338,-0.38104996 0.06764,-0.101354 0.135019,-0.202964 0.202137,-0.30484 0.1013311,-0.101354 0.2023991,-0.202964 0.3032081,-0.304842 0.09291,-0.02515 0.185555,-0.05054 0.277937,-0.07621 0.109756,-0.02515 0.219246,-0.05054 0.328476,-0.07621 0.126599,2.63e-4 0.252935,2.63e-4 0.37901,0 0.126599,0.05107 0.252934,0.101878 0.379007,0.15242 0.143447,0.09341 0.286626,0.186555 0.429542,0.279437 0.143447,0.127284 0.286626,0.254298 0.429546,0.38104997 C 9.129936,1.1179554 9.273113,1.2957764 9.416032,1.4733354 c 0.2360947,0.288175 0.4719187,0.576074 0.707484,0.863715 0.168715,0.245834 0.337159,0.491396 0.505345,0.736699 0.160292,0.237365 0.320315,0.474459 0.480078,0.711295 0.28663,0.330512 0.572985,0.660749 0.859088,0.990731 0.185558,0.254303 0.370846,0.50833 0.555879,0.762101 0.244518,0.254304 0.488762,0.50833 0.732751,0.762102 0.219248,0.254303 0.438226,0.508332 0.656949,0.7621 0.210826,0.245837 0.421382,0.491396 0.631682,0.736701 0.311896,0.347447 0.62352,0.69462 0.934887,1.041537 0.252941,0.322046 0.505609,0.643816 0.758017,0.965327 0.185562,0.2458356 0.37085,0.4913956 0.555881,0.7366996 0.295053,0.364384 0.589833,0.728492 0.884353,1.092343 0.03395,0.08494 0.06764,0.169622 0.10107,0.254035 -0.09238,-0.270711 -0.185031,-0.541675 -0.277939,-0.812907 -0.0082,-0.118288 -0.01658,-0.236836 -0.02527,-0.35565 -0.04185,-0.152158 -0.08396,-0.304576 -0.126335,-0.45726 -0.03342,-0.07594 -0.06711,-0.152157 -0.101071,-0.228629 -0.05869,-0.1690946 -0.117652,-0.3384506 -0.176871,-0.5080676 -0.05869,-0.186031 -0.117652,-0.37232 -0.176869,-0.558875 0.07606,-0.363858 0.151864,-0.727966 0.227405,-1.092344 0.101331,-0.228372 0.202399,-0.456997 0.303207,-0.68589 0.126599,-0.143693 0.252933,-0.287644 0.379009,-0.43186 0.210826,-0.118288 0.421382,-0.236833 0.631681,-0.355647 0.109754,-0.04207 0.219243,-0.08441 0.328474,-0.127017 0.18556,0.01719 0.370848,0.03413 0.555879,0.05081 0.219248,0.101879 0.438227,0.20349 0.656948,0.304841 0.252941,0.161154 0.505608,0.322038 0.758018,0.482666 0.269312,0.299066 0.538351,0.597859 0.807132,0.896396 0.242934,0.330323 0.485593,0.660371 0.727998,0.990161 0.165077,0.254342 0.329887,0.508411 0.494441,0.762222 0.154087,0.165969 0.30791,0.3316656 0.461475,0.4971036 0.0552,-0.04392 0.110136,-0.08811 0.164811,-0.132562 0.274957,-0.03288 0.549638,-0.06601 0.824066,-0.09942 0.154088,-0.04392 0.307912,-0.0881 0.461475,-0.1325596 0.09915,2.63e-4 0.198036,2.63e-4 0.296662,0 0.263968,0.04445 0.527664,0.08864 0.791103,0.1325596 0.39582,0.177016 0.791362,0.353759 1.186651,0.530244 0.263967,0.09969 0.527663,0.199103 0.791102,0.298261 0.241992,0.09969 0.483715,0.199104 0.725176,0.29826 0.274956,0.02235 0.549637,0.04445 0.824065,0.06628 0.241992,-0.04392 0.483714,-0.08811 0.725175,-0.132561 0.20903,-0.02182 0.417788,-0.04392 0.626289,-0.06628 0.252979,0.06654 0.50569,0.132824 0.75814,0.198842 0.198042,0.06654 0.39581,0.132825 0.593326,0.19884 0.165076,0.05549 0.329887,0.110732 0.494437,0.1657 0.220018,0.30958 0.439763,0.618881 0.659251,0.927926 0.220018,0.47528 0.439764,0.95028 0.659254,1.425026 0.176065,0.552608 0.351862,1.104933 0.527398,1.657008 0.154091,0.508422 0.307913,1.01656 0.461478,1.524445 0.121127,0.342719 0.241986,0.685159 0.362587,1.027346 0.132115,0.375859 0.263962,0.751439 0.395551,1.126763 0.263968,0.729362 0.527664,1.458432 0.791102,2.187252 0.263968,0.54156 0.527662,1.082841 0.791101,1.623865 0.307917,0.431096 0.615563,0.861907 0.922952,1.292466 0.296931,0.309579 0.593589,0.61888 0.889989,0.927924 0.318906,0.331673 0.637537,0.663068 0.955915,0.994206 0.725454,0.486326 1.450613,0.972372 2.175528,1.458165 0.604588,0.420048 1.20889,0.839815 1.812941,1.259325 -0.01074,0.04445 -0.0217,0.08864 -0.03296,0.132562 2.62e-4,7.08135 2.62e-4,14.16215 0,21.242834 -0.0327,-0.03288 -0.06566,-0.06601 -0.09889,-0.09942 -2.054454,-2.275404 -4.109077,-4.550982 -6.164004,-6.826867 -0.999624,-1.00501 -1.999469,-2.010241 -2.999596,-3.015752 -0.988624,-1.060251 -1.977483,-2.120714 -2.966621,-3.181463 -0.648016,-0.618365 -1.296267,-1.236969 -1.944789,-1.855848 -0.812833,-0.728835 -1.625894,-1.457902 -2.439232,-2.187249 -0.362332,-0.264863 -0.724914,-0.52998 -1.087763,-0.795364 -0.296409,-0.20963 -0.593066,-0.419511 -0.889991,-0.629662 -0.593074,-0.231724 -1.18639,-0.4637 -1.779977,-0.695943 -0.296408,-0.1323 -0.593066,-0.264858 -0.88999,-0.397682 -0.593075,-0.286959 -1.186391,-0.574167 -1.779978,-0.861645 -0.52715,-0.331145 -1.054541,-0.66254 -1.582202,-0.994204 -0.296409,-0.187534 -0.593066,-0.375323 -0.889991,-0.563382 -0.593073,-0.38638 -1.186389,-0.773006 -1.779977,-1.159905 -0.263444,-0.187534 -0.52714,-0.375326 -0.791102,-0.563382 -0.263445,-0.309051 -0.527141,-0.618354 -0.791104,-0.927926 -0.483197,-0.684646 -0.966639,-1.369528 -1.450353,-2.054688 -0.406283,-0.70674 -0.812814,-1.413717 -1.219613,-2.120968 -0.131591,-0.220677 -0.263439,-0.441607 -0.395551,-0.662805 -0.120603,-0.386379 -0.241467,-0.773007 -0.36259,-1.159904 -0.09863,-0.408474 -0.197513,-0.817194 -0.296664,-1.226187 2.62e-4,-0.09916 2.62e-4,-0.198576 0,-0.298261 -0.351343,-0.463709 -0.702939,-0.927659 -1.0548,-1.391886 -0.0327,-0.121253 -0.06567,-0.242763 -0.09889,-0.364541 0.09915,-0.165441 0.198035,-0.331137 0.296663,-0.497103 0.154091,-0.08811 0.307913,-0.176482 0.461475,-0.265119 0.143103,-0.02182 0.285939,-0.04392 0.428513,-0.06628 0.176068,0.02235 0.351864,0.04445 0.527404,0.06628 0.165078,0.07759 0.329886,0.154917 0.494439,0.23198 0.209027,0.132825 0.417787,0.265384 0.626287,0.397682 0.220018,0.165966 0.439763,0.331664 0.659253,0.497101 0.176064,0.132826 0.351864,0.265385 0.527399,0.397682 0.154092,0.23225 0.307914,0.464228 0.461478,0.695943 0.110139,0.188061 0.220013,0.37585 0.329626,0.563383 0.06618,0.188061 0.132111,0.375851 0.197773,0.563382 0.06618,0.04445 0.132113,0.08864 0.197778,0.132561 0.0552,0.07759 0.110136,0.154917 0.164812,0.231982 0.0552,0.08864 0.110136,0.177012 0.164813,0.265121 0.03322,0.0555 0.06618,0.11073 0.09888,0.1657 0.132115,0.519471 0.263964,1.038656 0.395552,1.557587 0.09915,0.331672 0.198036,0.663065 0.296663,0.994205 -0.263445,-1.005009 -0.52714,-2.01024 -0.791103,-3.015755 -0.0327,-0.253816 -0.06566,-0.507885 -0.09888,-0.762222 -0.07665,-0.331146 -0.153563,-0.662541 -0.230737,-0.994205 -0.197514,-0.474756 -0.395286,-0.949754 -0.593323,-1.425026 -0.197517,-0.342192 -0.395288,-0.684633 -0.593328,-1.027343 -0.197514,-0.331146 -0.395288,-0.662541 -0.593326,-0.994205 -0.417271,-0.585224 -0.834788,-1.170689 -1.252578,-1.756429 -0.219491,-0.353238 -0.439237,-0.706725 -0.659251,-1.060484 -0.08764,-0.121252 -0.175538,-0.242764 -0.2637,-0.364543 -0.307394,-0.41952 -0.61504,-0.839285 -0.922953,-1.2593226 C 10.107963,9.1654014 9.7783457,8.7014474 9.448457,8.2372234 9.250939,7.8729364 9.0531701,7.5084034 8.8551321,7.1435974 8.6026751,6.7019834 8.3499681,6.2601244 8.0969941,5.8179924 7.6467581,5.1112514 7.1962791,4.4042744 6.7455271,3.6970224 6.6084211,3.4471844 6.4710591,3.1970924 6.333432,2.9467324 Z"
       inkscape:export-filename="/Users/ryota32/pc_data/project/bounced_ball_html5/path956.png"
       inkscape:export-xdpi="256"
       inkscape:export-ydpi="256" />
  </g>
</svg>
